<svg width="20" height="20" viewBox="0 0 20 20" fill="none" xmlns="http://www.w3.org/2000/svg">
<path d="M5.496 19H7V17.964C7 17.964 6.983 16.343 7.874 14.973C5.843 14.831 4.231 13.019 4.231 10.782C4.231 9.997 4.529 9.265 5.04 8.635L5.092 6.702C5.105 6.211 5.596 5.876 6.058 6.043L8.133 6.793C8.719 6.647 9.346 6.564 10 6.564C10.654 6.564 11.281 6.647 11.867 6.794L13.942 6.044C14.404 5.877 14.895 6.212 14.908 6.703L14.96 8.635C15.47 9.265 15.769 9.997 15.769 10.782C15.769 13.019 14.157 14.831 12.126 14.973C13.017 16.343 13 17.964 13 17.964V19H14.504C16.987 19 19 16.987 19 14.505V5.496C19 3.013 16.987 1 14.504 1H5.5C3.015 1 1 3.015 1 5.5V14.504C1 16.987 3.013 19 5.496 19" stroke="white" stroke-width="1.5" stroke-linecap="round" stroke-linejoin="round"/>
</svg>
